<svg width="870" height="174" viewBox="0 0 870 174" fill="none" xmlns="http://www.w3.org/2000/svg">
<path fill-rule="evenodd" clip-rule="evenodd" d="M74.4396 87.7537C74.3999 87.7262 74.5446 87.6418 74.5631 87.6783L79.3197 83.8767C84.5131 79.9905 90.3985 77.2436 96.3791 74.7514C106.314 70.6115 121.487 68.5748 133.246 69.6179L137.453 69.9995C137.612 70.0157 138.019 70.0628 138.155 70.0988L138.857 70.384C118.424 70.6626 98.9895 74.9305 81.1516 84.1459C79.8621 84.8121 75.3371 87.3143 74.7303 87.9557L74.4396 87.7537ZM57.5462 77.3323C58.0299 76.78 58.7568 76.4386 59.4291 76.0178C60.1062 75.5938 60.65 75.2535 61.3559 74.8405C77.6973 65.2808 99.6151 60.9527 118.576 62.7005C124.891 63.2825 134.224 65.0523 139.85 66.9755L129.204 65.7199C113.192 63.9351 100.406 65.2146 84.8929 68.2558C77.7646 69.6531 68.7455 72.6414 61.9686 75.4455C60.6226 76.0024 58.7912 76.9768 57.5463 77.3324L57.5462 77.3323ZM156.45 63.7515C163.775 63.0865 167.311 66.6458 172.553 65.606C172.102 67.6924 170.339 69.615 169.267 70.7719C168.422 71.6842 165.843 74.0261 164.549 74.4508C163.315 71.7895 163.883 69.9766 161.592 68.0383L156.45 63.7514V63.7515ZM57.7198 40.2514C57.8715 40.0921 57.8405 40.1192 58.0652 39.9436C58.1026 39.9144 58.3942 39.714 58.4263 39.6933C60.3652 38.4465 61.0369 38.4226 63.3571 37.8086C69.1636 36.2718 76.5247 34.6687 82.3922 33.5635C86.8044 32.7326 91.1865 31.8768 95.594 31.0507C99.1825 30.3783 105.306 28.9774 108.769 28.8594C108.613 30.2155 108.486 31.4307 108.503 32.8757C108.523 34.6799 109.165 34.7415 109.556 36.0151C109.875 37.0591 110.034 42.2494 110.218 43.9062C110.846 49.5518 111.553 52.9807 116.603 54.6251C120.847 56.0073 127.176 56.7539 131.886 56.0892C134.915 55.6618 136.068 54.9099 137.201 52.8735C138.237 51.0121 139.344 49.1294 139.859 46.7484C134.331 47.5377 133.351 46.5458 129.993 44.3278C125.187 41.1527 123.215 38.6379 115.524 37.9716C115.631 33.2748 116.766 32.6539 121.273 32.7465C126.754 32.8591 138.84 35.069 142.797 38.1204C143.958 39.0157 143.917 40.4448 143.591 42.2152C142.577 47.7339 140.03 54.3573 136.473 56.6062C132.627 59.0375 122.063 57.9156 117.459 56.8572C110.632 55.2873 108.751 52.3566 107.402 45.3717C107.149 44.0603 106.183 36.4988 105.828 36.0705C104.733 34.7479 98.465 35.887 96.6013 36.0715C90.0909 36.7158 83.54 37.4555 77.1166 38.1706C71.9652 38.7441 62.3451 39.9745 57.7198 40.2515V40.2514ZM62.7538 25.9916C61.6423 25.5456 61.6394 25.1915 60.7718 24.4731C57.1032 21.4351 52.0809 14.8466 50.9703 10.5443C53.4419 11.091 64.4701 15.0146 67.1974 16.1122C69.8134 17.165 72.3607 18.1139 74.96 19.2223C77.3867 20.2573 80.1389 21.7006 82.4878 22.5827C82.248 22.7562 82.5318 22.6264 82.0457 22.7989C81.8485 22.869 81.7718 22.8788 81.5714 22.9176L79.0633 23.2868C76.1944 23.8034 72.4522 25.0311 69.8547 26.0802C68.1534 26.7673 65.8968 28.0028 64.5151 28.8962L61.0409 31.4455C60.4567 31.8139 60.5276 31.776 60.0193 32.2089C60.3102 31.2104 60.823 30.0548 61.229 29.1037C61.7308 27.9281 62.594 26.9966 62.7538 25.9915V25.9916ZM40.2598 0.175323C39.582 2.72852 46.0278 22.4846 47.7948 26.7766L51.3992 34.545C47.8073 32.2901 43.7899 26.9688 42.0072 23.2393C39.6639 23.4073 33.5089 25.8708 31.166 26.7758C22.703 30.0448 13.7242 33.9281 5.68237 38.1828C4.32506 38.9009 1.84282 39.9252 0.857875 40.7102C0.280959 41.7407 -0.00727571 54.1839 0.0001395 56.1553C0.0632967 72.949 3.2037 88.1824 9.21022 103C11.8738 109.57 15.1593 115.666 18.657 121.697C19.3879 122.957 20.0554 124.006 20.8342 125.15C22.7239 127.928 25.4522 132.641 27.6478 135.02C28.5848 136.035 29.3418 137.279 30.0967 138.202L32.6413 141.285C33.14 141.792 33.3742 142.188 33.911 142.735C36.2678 145.134 38.3371 147.754 40.7048 150.112C41.7045 151.108 42.5457 151.907 43.554 152.89L46.4362 155.633C47.9605 156.898 49.296 158.343 50.8904 159.528L58.7192 165.866C59.4461 166.452 59.6429 166.452 60.3096 166.992C60.9542 167.513 61.3417 167.732 62.0244 168.189C63.0237 168.857 64.1981 169.832 65.2953 170.344C65.7594 169.699 66.4144 165.453 66.7107 164.225C68.5161 156.74 71.361 149.129 75.3908 142.632C76.3905 141.02 77.2872 139.308 78.3373 138.012C79.5377 136.53 80.3714 134.995 81.5745 133.679L83.3684 131.593C83.9682 130.889 84.5966 130.279 85.1548 129.516C81.8763 127.036 71.1171 125.874 66.9287 125.875L64.4121 125.85C66.242 124.794 74.8416 123.998 77.4087 124C83.532 124.003 88.9703 124.899 94.0178 127.271C106.117 132.956 102.646 145.974 116.739 143.954C120.216 143.456 124.667 141.931 127.297 139.812C128.134 139.137 129.431 138.049 129.768 137.312C126.586 136.611 124.88 135.299 122.77 133.256C119.48 130.07 116.947 126.293 114.757 122.25C108.94 111.514 102.523 95.7899 113.252 85.5966C116.282 82.7182 121.973 79.4916 125.889 78.7323C125.434 78.9947 124.658 79.4981 124.178 79.8255C119.592 82.9537 116.334 87.6944 116.767 93.8831C117.606 93.4881 118.345 91.9742 119.061 91.2111C119.941 90.2728 120.597 89.6429 121.547 88.6518C122.917 87.2206 125.808 85.6618 127.619 84.8176C135.896 80.9578 146.771 80.8994 155.849 82.4736C161.029 83.3717 162.638 84.7432 165.357 82.778C168.377 80.5949 171.204 75.5764 171.81 71.3543C172.083 69.4464 172.848 68.6693 173.282 66.8294C173.935 64.0572 172.376 62.6119 170.849 60.921C169.083 58.9649 168.61 58.2593 166.289 56.3559C160.841 51.8895 154.462 47.8134 147.634 45.6965L147.048 45.4813C147.807 43.7213 148.125 41.9909 150.212 41.825C153.247 41.5837 152.89 43.2683 153.059 45.7299L156.181 47.1375C156.219 45.575 156.336 44.2029 156.55 42.7504C156.814 40.9635 156.911 40.1686 158.318 39.6283C160.784 38.6818 163.895 38.4453 166.626 39.1358C169.343 39.8227 169.149 40.5196 168.165 45.8121C167.631 48.6804 166.778 50.7883 165.907 53.2977C166.603 53.7426 167.067 54.1885 167.903 54.6233C169.872 50.2806 171.488 43.5111 172.029 42.4724C172.636 41.3039 173.133 39.328 172.989 37.7182C171.506 36.4729 167.665 35.67 165.258 35.4463C157.751 34.7486 154.697 38.9242 148.085 36.3089C146.964 35.8654 145.95 35.1845 144.913 34.6365C139.2 31.6165 132.958 29.8418 126.456 28.2695C119.786 26.6565 114.504 26.6393 109.331 25.5967C112.66 24.6847 120.024 24.745 123.598 25.1514C138.811 26.8817 145.799 34.4352 152.19 34.8996C154.046 35.0345 157.344 34.629 158.09 33.2546C157.474 31.5566 153.279 30.6574 151.957 28.9621C151.55 28.4405 151.217 28.0009 150.838 27.556C149.086 25.4969 146.029 22.6802 143.908 21.0966C140.8 18.775 137.581 16.7389 133.862 15.0331C117.013 7.30678 99.5697 7.07179 81.3326 9.07639C77.4535 9.50277 78.1412 9.98188 74.5198 8.38505C68.2777 5.6326 62.1287 3.50137 55.3623 1.90025C52.6283 1.25328 42.6603 -0.568564 40.2598 0.175578L40.2598 0.175323Z" fill="#F7F3F4"/>
<path fill-rule="evenodd" clip-rule="evenodd" d="M121.512 127.208C121.946 128.17 122.792 128.96 123.37 129.742C124.544 131.327 126.386 132.841 128.151 133.91C129.384 134.656 129.925 133.71 130.615 132.84C133.557 129.128 135.773 125.074 135.684 119.687C134.86 119.918 135.393 119.691 134.817 120.169C131.64 122.806 129.618 124.249 125.614 125.891C124.255 126.448 122.814 126.697 121.512 127.208V127.208Z" fill="#F76A10"/>
<path fill-rule="evenodd" clip-rule="evenodd" d="M62.7539 25.9915C62.5941 26.9966 61.7309 27.9281 61.2291 29.1038C60.823 30.0548 60.3102 31.2105 60.0195 32.2089C60.5277 31.7761 60.4568 31.8139 61.041 31.4455L64.5152 28.8962C65.897 28.0029 68.1536 26.7673 69.8548 26.0802C72.4523 25.0311 76.1945 23.8034 79.0634 23.2868L81.5715 22.9176C81.7719 22.8788 81.8486 22.869 82.0458 22.7989C82.5319 22.6264 82.2482 22.7562 82.4879 22.5827C80.139 21.7006 77.3868 20.2573 74.9601 19.2224C72.3609 18.1139 69.8135 17.165 67.1975 16.1122C64.4702 15.0146 53.442 11.091 50.9705 10.5443C52.081 14.8467 57.1033 21.4351 60.772 24.4731C61.6395 25.1915 61.6424 25.5457 62.7539 25.9917V25.9915Z" fill="#F76A10"/>
<path fill-rule="evenodd" clip-rule="evenodd" d="M57.5464 77.3323C58.7914 76.9767 60.6228 76.0023 61.9687 75.4454C68.7457 72.6413 77.7647 69.6531 84.8931 68.2557C100.406 65.2146 113.192 63.9351 129.205 65.7198L139.85 66.9755C134.224 65.0522 124.891 63.2824 118.576 62.7004C99.6153 60.9527 77.6975 65.2808 61.3561 74.8405C60.6502 75.2535 60.1064 75.5938 59.4292 76.0177C58.7569 76.4385 58.03 76.7799 57.5464 77.3322L57.5464 77.3323Z" fill="#F76A10"/>
<path fill-rule="evenodd" clip-rule="evenodd" d="M147.702 102.496C149.718 101.808 153.266 97.6603 154.729 95.6302C156.023 93.8346 159.09 88.9238 159.339 86.0427C157.034 84.6303 149.04 84.3646 145.959 84.4025C146.766 87.4867 147.732 87.8911 148.271 92.7888C148.707 96.7596 148.039 98.8693 147.702 102.496Z" fill="#F76A10"/>
<path fill-rule="evenodd" clip-rule="evenodd" d="M74.7302 87.9556C75.337 87.3142 79.862 84.812 81.1515 84.1458C98.9894 74.9304 118.424 70.6625 138.857 70.3839L138.155 70.0987C138.019 70.0627 137.612 70.0157 137.453 69.9994L133.246 69.6178C121.487 68.5747 106.314 70.6113 96.379 74.7513C90.3985 77.2435 84.513 79.9904 79.3196 83.8766L74.563 87.6782C74.5445 87.6418 74.3998 87.7262 74.4395 87.7536L74.7302 87.9556Z" fill="#F76A10"/>
<path fill-rule="evenodd" clip-rule="evenodd" d="M161.592 68.0383C163.883 69.9766 163.315 71.7895 164.549 74.4508C165.843 74.026 168.422 71.6841 169.267 70.7718C170.339 69.6149 172.102 67.6923 172.553 65.6059C167.311 66.6457 163.775 63.0864 156.45 63.7514L161.592 68.0383V68.0383Z" fill="#F76A10"/>
<path fill-rule="evenodd" clip-rule="evenodd" d="M525.491 80.2632C532.897 55.3944 556.019 37.1405 583.218 37.1405H604.801C629.607 37.1405 651.022 52.3237 660.216 73.8607C661.119 63.0777 665.668 53.7396 674.853 47.1987C685.812 39.3947 700.681 37.5108 713.795 37.5108C722.462 37.5108 731.285 38.2452 739.704 40.3792C745.458 41.8375 751.219 43.7088 756.585 46.264C760.101 47.9383 762.441 51.2212 762.877 55.0908L764.636 70.6926C765.078 74.6128 763.478 78.3839 760.351 80.7895C757.233 83.1885 753.159 83.7715 749.493 82.3434C745.623 80.8356 741.649 79.5885 737.629 78.5487C731.013 76.8378 724.169 76.1406 717.345 76.1406C714.217 76.1406 710.25 76.2424 707.221 77.0906C706.592 77.2668 705 77.7852 704.506 78.2675C704.357 78.4576 704.356 78.7213 704.356 78.9535V79.5451C704.356 80.1034 704.42 80.5897 704.776 81.0291C704.821 81.0836 704.864 81.1385 704.901 81.1857C705.598 82.0093 708.192 83.0627 709.175 83.4192C709.235 83.441 709.295 83.4632 709.354 83.486C713.952 85.2431 719.126 86.494 723.915 87.6218C732.303 89.3841 741.19 91.7217 748.977 95.3554C755.408 98.3565 761.207 102.608 765.008 108.701C768.873 114.897 770.147 122.276 770.147 129.481V130.901C770.147 144.069 765.773 155.819 754.93 163.714C743.455 172.07 727.485 174 713.677 174C704.823 174 695.781 173.248 687.163 171.148C681.305 169.721 675.458 167.975 669.862 165.721C665.991 164.162 663.36 160.67 662.93 156.518L661.106 138.913C660.7 134.992 662.33 131.24 665.474 128.862C668.614 126.486 672.677 125.937 676.335 127.392C680.677 129.12 685.125 130.586 689.619 131.865C696.683 133.874 704.1 134.66 711.429 134.66C714.8 134.66 721.213 134.427 724.231 132.707C725.296 132.101 725.601 131.651 725.601 130.427V129.717C725.601 129.262 725.563 128.706 725.269 128.329C724.154 127.248 721.458 126.18 720.075 125.687C715.153 123.929 709.656 122.686 704.564 121.509C696.201 119.576 687.333 116.889 679.744 112.815C673.74 109.592 668.463 105.231 665.009 99.3121V111.697C665.009 144.826 637.93 171.906 604.801 171.906H583.218C556.019 171.906 532.897 153.652 525.491 128.783C518.086 153.652 494.964 171.906 467.764 171.906H389.111C363.012 171.906 340.668 155.1 332.36 131.771C330.683 141.112 327.395 150.128 321.493 157.537C312.071 169.367 298.48 173.882 283.666 173.882C276.589 173.882 269.378 172.795 262.911 169.813C260.042 168.489 257.386 166.867 254.979 164.941C254.762 166.431 254.098 167.761 252.997 168.905C251.557 170.4 249.77 171.16 247.693 171.16H217.401C213.345 171.16 210.037 167.852 210.037 163.797V7.3635C210.037 3.30783 213.345 0 217.401 0H247.575C251.631 0 254.939 3.30783 254.939 7.3635V43.0993C254.939 43.1425 254.938 43.1793 254.938 43.2225L254.874 47.0564C257.226 45.1115 259.833 43.4617 262.637 42.0879C269.408 38.7706 277.264 37.7475 284.731 37.7475C299.18 37.7475 312.336 42.2061 321.582 53.6601C327.201 60.6217 330.427 69.0759 332.149 77.8761C340.286 54.2349 362.789 37.1405 389.11 37.1405H467.764C494.964 37.1405 518.086 55.3944 525.491 80.2633V80.2632ZM254.465 88.4272V115.827C254.632 119.399 255.3 123.197 257.07 126.344C258.449 128.797 260.302 130.629 262.82 131.888C265.869 133.412 269.278 133.95 272.661 133.95C277.006 133.95 281.543 133.102 284.552 129.716C287.938 125.907 288.609 119.426 288.609 114.571V95.7565C288.609 90.9421 287.921 84.7791 284.563 81.0177C281.566 77.6605 276.967 76.8506 272.661 76.8506C269.603 76.8506 266.544 77.3284 263.766 78.6556C261.293 79.8374 259.131 81.4409 257.374 83.5493C256.141 85.0282 255.179 86.6576 254.465 88.4273L254.465 88.4272ZM389.111 77.0533C378.012 77.0533 368.815 86.2507 368.815 97.349V111.697C368.815 122.795 378.012 131.993 389.111 131.993H467.764C478.863 131.993 488.06 122.795 488.06 111.697V97.349C488.06 86.2507 478.863 77.0533 467.764 77.0533H389.111ZM583.218 77.0533C572.12 77.0533 562.923 86.2508 562.923 97.3491V111.697C562.923 122.795 572.12 131.993 583.218 131.993H604.801C615.899 131.993 625.096 122.795 625.096 111.697V97.3491C625.096 86.2508 615.899 77.0533 604.801 77.0533H583.218ZM782.305 41.2974L782.234 22.8119C782.214 17.5213 786.204 13.0864 791.467 12.5498L815.692 10.0798C818.669 9.77619 821.569 10.7538 823.754 12.7982C825.936 14.8391 827.108 17.6758 827.004 20.6615L826.282 41.2973H857.812C860.761 41.2973 863.492 42.5164 865.462 44.7116C867.423 46.8979 868.345 49.7658 868.028 52.6855L866.059 70.764C865.49 75.9827 861.093 79.9271 855.843 79.9271H826.77V121.789C826.77 124.333 827.089 128.564 829.005 130.52C830.934 132.488 836.421 132.767 838.931 132.767C842.52 132.767 846.089 132.378 849.587 131.574C851.54 131.124 853.476 130.585 855.37 129.928C858.705 128.772 862.348 129.389 865.115 131.58C867.891 133.778 869.32 137.165 868.958 140.687L867.019 159.548C866.631 163.324 864.255 166.521 860.752 167.982C856.477 169.764 851.983 171.048 847.445 171.962C841.566 173.146 835.576 173.645 829.583 173.645C820.571 173.645 810.855 172.487 802.703 168.411C795.3 164.709 789.798 158.94 786.501 151.346C783.104 143.523 781.987 134.756 781.987 126.286V79.9273H775.46C769.792 79.9273 765.184 75.3197 765.184 69.6516V51.5731C765.184 45.905 769.792 41.2974 775.46 41.2974H782.305V41.2974Z" fill="#131313"/>
<path d="M713.676 164.808C704.368 164.808 696.085 163.901 688.906 162.165C682.672 160.632 677.232 158.923 672.613 157.062C671.273 156.523 670.403 155.368 670.254 153.931L668.43 136.326C668.289 134.966 668.826 133.73 669.916 132.906C671.006 132.081 672.342 131.9 673.612 132.406C677.979 134.143 682.634 135.714 687.604 137.119C694.783 139.17 702.751 140.195 711.428 140.195C719.001 140.195 724.484 139.209 727.876 137.276C731.268 135.344 732.964 132.464 732.964 128.599V127.889C732.964 125.319 732.195 123.21 730.733 121.562C730.694 121.518 730.66 121.481 730.618 121.438C729.033 119.805 726.37 118.287 722.551 116.924C718.686 115.543 713.243 114.084 706.222 112.506C696.518 110.218 688.827 107.536 683.226 104.499C677.586 101.501 673.523 97.7541 671.077 93.2575C668.632 88.8398 667.409 83.4755 667.409 77.2434V76.1784C667.409 65.2132 671.314 56.93 679.124 51.3685C686.934 45.8069 698.491 43.0459 713.795 43.0459C722.867 43.0459 730.874 43.9137 737.895 45.6887C743.951 47.2285 749.117 49.0354 753.418 51.0838C754.638 51.6645 755.408 52.7454 755.56 54.0875L757.319 69.6892C757.472 71.0488 756.945 72.2908 755.86 73.1251C754.776 73.9594 753.44 74.1505 752.166 73.6539C748.226 72.1189 743.995 70.761 739.472 69.5914C732.609 67.8165 725.233 66.9487 717.345 66.9487C712.217 66.9487 708.194 67.3431 705.235 68.1714C702.277 68.9997 700.147 70.183 698.885 71.6819C697.623 73.1808 696.992 74.9952 696.992 77.1251V77.7168C696.992 80.0707 697.655 82.1125 699.059 83.842C699.075 83.8615 699.089 83.8782 699.104 83.898C700.447 85.6177 702.993 87.1818 706.664 88.5131C706.685 88.5209 706.704 88.5277 706.725 88.5358C710.423 89.949 715.604 91.4015 722.27 92.9709C722.302 92.9784 722.329 92.9844 722.361 92.991C732.121 95.04 739.955 97.4428 745.862 100.2C751.779 102.961 756.078 106.471 758.76 110.77C761.442 115.07 762.783 120.71 762.783 127.652V129.072C762.783 141.063 758.721 150.017 750.595 155.933C742.47 161.85 730.164 164.808 713.676 164.808L713.676 164.808Z" fill="#F76A10"/>
<path d="M789.685 43.9091L789.597 20.9553C789.591 19.4512 790.717 18.1996 792.214 18.0469L816.439 15.5769C817.306 15.4885 818.087 15.7518 818.724 16.3474C819.36 16.9428 819.675 17.7046 819.645 18.5758L818.762 43.8186C818.733 44.6379 819.008 45.3535 819.577 45.9432C820.147 46.533 820.852 46.8325 821.672 46.8325H857.812C858.67 46.8325 859.407 47.1619 859.98 47.8001C860.552 48.4382 860.8 49.2076 860.707 50.0599L858.738 68.1384C858.577 69.6228 857.336 70.7353 855.843 70.7353H822.318C820.714 70.7353 819.406 72.0435 819.406 73.6474V119.961C819.406 126.272 820.866 130.926 823.745 133.845C826.624 136.803 831.673 138.302 838.931 138.302C843.191 138.302 847.293 137.829 851.237 136.921C853.525 136.395 855.706 135.776 857.782 135.057C858.75 134.721 859.74 134.889 860.544 135.525C861.347 136.161 861.738 137.086 861.633 138.106L859.694 156.967C859.582 158.057 858.929 158.935 857.918 159.357C854.362 160.839 850.369 162.025 845.991 162.915C840.863 163.94 835.42 164.453 829.583 164.453C819.722 164.453 811.873 162.954 805.995 159.996C800.118 157.077 795.858 152.581 793.255 146.585C790.652 140.59 789.35 133.214 789.35 124.457V73.6474C789.35 72.0434 788.042 70.7352 786.438 70.7352H775.46C773.856 70.7352 772.547 69.427 772.547 67.8231V49.7445C772.547 48.1406 773.856 46.8324 775.46 46.8324H786.773C787.577 46.8324 788.269 46.5451 788.836 45.9755C789.404 45.406 789.688 44.7131 789.685 43.9091V43.9091Z" fill="#F76A10"/>
<path d="M217.401 161.968V5.53516H247.575V41.271L247.086 70.4986H248.285C249.547 65.4499 251.559 60.835 254.32 56.6934C257.081 52.5519 260.946 49.2781 265.877 46.872C270.768 44.4659 277.079 43.2826 284.731 43.2826C298.378 43.2826 308.752 47.6609 315.852 56.4568C322.952 65.2527 326.501 78.2691 326.501 95.4664V111.559C326.501 128.915 322.912 142.128 315.733 151.121C308.555 160.154 297.865 164.69 283.666 164.69C276.724 164.69 270.807 163.546 265.995 161.298C261.143 159.089 257.239 155.894 254.28 151.792C251.322 147.69 249.192 142.878 247.93 137.355H246.77L247.693 161.968H217.401H217.401ZM247.102 85.2873V114.163C247.338 119.685 248.522 124.339 250.652 128.126C252.782 131.912 255.74 134.752 259.526 136.645C263.313 138.539 267.691 139.485 272.661 139.485C280.313 139.485 286.111 137.237 290.056 132.78C294 128.362 295.972 121.657 295.972 112.743V93.9282C295.972 85.2506 294 78.7029 290.056 74.2853C286.111 69.8676 280.313 67.6587 272.661 67.6587C268.164 67.6587 264.141 68.4871 260.591 70.1831C257.041 71.8792 254.083 74.1669 251.717 77.0068C249.683 79.4467 248.145 82.2068 247.102 85.2873Z" fill="#F76A10"/>
<path fill-rule="evenodd" clip-rule="evenodd" d="M389.11 42.6758H467.764C496.829 42.6758 520.609 66.4561 520.609 95.5209V109.869C520.609 138.934 496.829 162.714 467.764 162.714H389.11C360.045 162.714 336.265 138.934 336.265 109.869V95.5209C336.265 66.4561 360.045 42.6758 389.11 42.6758ZM389.11 67.8616C373.947 67.8616 361.451 80.358 361.451 95.5209V109.869C361.451 125.032 373.947 137.528 389.11 137.528H467.764C482.927 137.528 495.423 125.032 495.423 109.869V95.5209C495.423 80.358 482.927 67.8616 467.764 67.8616H389.11Z" fill="#F76A10"/>
<path fill-rule="evenodd" clip-rule="evenodd" d="M583.218 42.6758H604.8C633.865 42.6758 657.646 66.4561 657.646 95.5209V109.869C657.646 138.933 633.865 162.714 604.8 162.714H583.218C554.153 162.714 530.373 138.934 530.373 109.869V95.5209C530.373 66.4561 554.153 42.6758 583.218 42.6758ZM583.218 67.8616C568.055 67.8616 555.559 80.358 555.559 95.5209V109.869C555.559 125.032 568.055 137.528 583.218 137.528H604.8C619.963 137.528 632.46 125.032 632.46 109.869V95.5209C632.46 80.358 619.963 67.8616 604.8 67.8616H583.218Z" fill="#F76A10"/>
</svg>
