<svg width="441" height="434" viewBox="0 0 441 434" fill="none" xmlns="http://www.w3.org/2000/svg">
<path fill-rule="evenodd" clip-rule="evenodd" d="M189.281 223.135C189.18 223.065 189.548 222.851 189.595 222.943L201.689 213.277C214.895 203.395 229.86 196.41 245.067 190.073C270.328 179.547 308.911 174.368 338.811 177.02L349.508 177.991C349.911 178.032 350.948 178.152 351.293 178.243L353.078 178.968C301.123 179.677 251.705 190.529 206.348 213.961C203.069 215.655 191.563 222.018 190.02 223.649L189.281 223.135ZM146.325 196.636C147.555 195.232 149.403 194.364 151.113 193.294C152.835 192.216 154.217 191.35 156.012 190.3C197.564 165.992 253.296 154.987 301.509 159.431C317.566 160.911 341.298 165.411 355.603 170.302L328.534 167.109C287.817 162.571 255.307 165.824 215.861 173.557C197.735 177.11 174.802 184.708 157.57 191.839C154.148 193.255 149.491 195.732 146.325 196.636L146.325 196.636ZM397.811 162.104C416.436 160.413 425.429 169.463 438.759 166.819C437.611 172.124 433.127 177.013 430.403 179.955C428.254 182.274 421.695 188.229 418.405 189.309C415.268 182.542 416.713 177.932 410.886 173.004L397.811 162.103V162.104ZM146.767 102.349C147.152 101.944 147.073 102.013 147.645 101.566C147.74 101.492 148.481 100.982 148.563 100.93C153.493 97.7596 155.201 97.6988 161.101 96.1374C175.865 92.2297 194.583 88.1535 209.502 85.3434C220.721 83.2305 231.864 81.0544 243.071 78.954C252.196 77.2441 267.766 73.6821 276.572 73.3821C276.176 76.8303 275.853 79.9202 275.894 83.5945C275.945 88.1819 277.579 88.3386 278.571 91.5771C279.385 94.2316 279.789 107.429 280.257 111.642C281.853 125.998 283.652 134.716 296.491 138.897C307.282 142.412 323.375 144.31 335.352 142.62C343.055 141.534 345.985 139.622 348.867 134.444C351.502 129.711 354.317 124.923 355.627 118.869C341.569 120.876 339.077 118.354 330.54 112.714C318.318 104.641 313.304 98.2463 293.749 96.5519C294.02 84.6092 296.906 83.0305 308.367 83.266C322.302 83.5522 353.035 89.1715 363.095 96.9303C366.048 99.2069 365.943 102.841 365.116 107.342C362.537 121.375 356.06 138.217 347.015 143.935C337.237 150.117 310.374 147.264 298.669 144.573C281.309 140.581 276.526 133.129 273.096 115.369C272.453 112.034 269.996 92.8071 269.094 91.7179C266.308 88.3549 250.371 91.2514 245.632 91.7205C229.078 93.3589 212.421 95.2397 196.088 97.0579C182.989 98.5163 158.528 101.645 146.767 102.349V102.349ZM159.567 66.0901C156.741 64.956 156.733 64.0555 154.527 62.2287C145.199 54.5038 132.428 37.7512 129.604 26.8114C135.889 28.2015 163.931 38.1782 170.866 40.9691C177.518 43.6461 183.995 46.0589 190.604 48.8774C196.775 51.509 203.772 55.179 209.745 57.422C209.136 57.8631 209.857 57.533 208.621 57.9717C208.12 58.15 207.925 58.1749 207.415 58.2735L201.038 59.2122C193.743 60.5259 184.227 63.6475 177.622 66.3152C173.296 68.0624 167.559 71.204 164.045 73.4755L155.211 79.9577C153.726 80.8945 153.906 80.7983 152.614 81.8988C153.353 79.3601 154.657 76.4216 155.689 74.0033C156.965 71.014 159.16 68.6454 159.567 66.0897V66.0901ZM102.37 0.4458C100.647 6.93793 117.037 57.1725 121.53 68.0859L130.695 87.8391C121.562 82.1054 111.346 68.5747 106.813 59.0915C100.855 59.5188 85.2044 65.7829 79.2472 68.084C57.728 76.3963 34.897 86.2704 14.4488 97.089C10.9975 98.915 4.68582 101.519 2.18136 103.516C0.714406 106.136 -0.0185003 137.776 0.000354712 142.788C0.160947 185.49 8.14619 224.225 23.4192 261.901C30.1919 278.609 38.5461 294.108 47.44 309.443C49.2985 312.647 50.9956 315.315 52.976 318.225C57.7811 325.287 64.7185 337.272 70.3011 343.321C72.6839 345.903 74.6085 349.066 76.5282 351.411L82.9984 359.252C84.2663 360.54 84.8621 361.548 86.2269 362.938C92.2197 369.039 97.4813 375.701 103.502 381.697C106.044 384.229 108.183 386.261 110.747 388.761L118.075 395.735C121.951 398.95 125.347 402.624 129.401 405.64L149.308 421.756C151.156 423.245 151.657 423.246 153.352 424.617C154.991 425.943 155.976 426.5 157.712 427.661C160.253 429.361 163.239 431.84 166.029 433.14C167.209 431.5 168.875 420.705 169.628 417.582C174.219 398.55 181.453 379.198 191.699 362.676C194.241 358.577 196.521 354.225 199.192 350.929C202.244 347.162 204.364 343.257 207.423 339.912L211.984 334.607C213.51 332.817 215.107 331.266 216.527 329.326C208.19 323.02 180.832 320.066 170.182 320.068L163.783 320.004C168.436 317.319 190.303 315.296 196.83 315.299C212.4 315.307 226.228 317.587 239.063 323.617C269.828 338.073 261.003 371.175 296.838 366.039C305.677 364.772 316.996 360.893 323.682 355.506C325.812 353.79 329.11 351.022 329.968 349.15C321.875 347.367 317.537 344.032 312.172 338.836C303.808 330.733 297.365 321.13 291.796 310.85C277.007 283.552 260.691 243.569 287.971 217.65C295.674 210.331 310.146 202.127 320.104 200.196C318.945 200.863 316.973 202.143 315.752 202.976C304.09 210.93 295.809 222.984 296.909 238.72C299.042 237.716 300.921 233.867 302.74 231.926C304.978 229.54 306.647 227.939 309.061 225.419C312.547 221.779 319.897 217.816 324.501 215.669C345.55 205.855 373.201 205.706 396.285 209.709C409.455 211.993 413.547 215.48 420.461 210.483C428.14 204.932 435.328 192.171 436.868 181.436C437.563 176.584 439.509 174.608 440.611 169.93C442.273 162.881 438.308 159.206 434.426 154.906C429.935 149.933 428.732 148.139 422.829 143.299C408.976 131.942 392.757 121.577 375.396 116.194L373.905 115.647C375.835 111.172 376.644 106.772 381.95 106.35C389.668 105.737 388.759 110.02 389.19 116.279L397.127 119.858C397.225 115.885 397.522 112.397 398.068 108.703C398.738 104.16 398.984 102.139 402.563 100.765C408.833 98.3578 416.743 97.7565 423.687 99.5123C430.595 101.259 430.102 103.031 427.599 116.488C426.243 123.782 424.073 129.141 421.859 135.522C423.628 136.654 424.809 137.787 426.933 138.893C431.941 127.851 436.051 110.638 437.424 107.996C438.969 105.025 440.233 100.001 439.867 95.9078C436.096 92.7411 426.33 90.6997 420.209 90.1308C401.12 88.3568 393.355 98.9743 376.543 92.3242C373.693 91.1965 371.113 89.4652 368.477 88.0717C353.949 80.3925 338.077 75.88 321.545 71.882C304.586 67.7805 291.153 67.7368 278 65.0857C286.466 62.7667 305.19 62.9202 314.277 63.9536C352.961 68.3532 370.73 87.5597 386.98 88.7408C391.699 89.0837 400.086 88.0527 401.981 84.5579C400.417 80.2402 389.75 77.9538 386.388 73.6433C385.353 72.3168 384.505 71.199 383.543 70.0678C379.086 64.832 371.314 57.67 365.922 53.6433C358.018 47.7401 349.834 42.5628 340.376 38.2253C297.534 18.5793 253.18 17.9817 206.808 23.0789C196.944 24.1631 198.693 25.3814 189.485 21.321C173.613 14.3223 157.977 8.90307 140.772 4.83186C133.82 3.18676 108.474 -1.44571 102.37 0.446451L102.37 0.4458Z" fill="black"/>
<path fill-rule="evenodd" clip-rule="evenodd" d="M308.975 323.458C310.076 325.904 312.227 327.913 313.698 329.901C316.682 333.931 321.366 337.782 325.855 340.499C328.989 342.395 330.366 339.991 332.119 337.779C339.6 328.339 345.237 318.031 345.01 304.333C342.913 304.922 344.27 304.343 342.806 305.558C334.726 312.264 329.586 315.934 319.404 320.109C315.949 321.526 312.283 322.159 308.975 323.459V323.458Z" fill="#F76A10"/>
<path fill-rule="evenodd" clip-rule="evenodd" d="M159.567 66.0899C159.16 68.6454 156.965 71.0141 155.689 74.0034C154.657 76.4217 153.353 79.3602 152.614 81.899C153.906 80.7984 153.726 80.8946 155.211 79.9579L164.045 73.4757C167.559 71.2041 173.297 68.0625 177.622 66.3153C184.227 63.6477 193.743 60.526 201.037 59.2123L207.415 58.2737C207.925 58.1748 208.12 58.1501 208.621 57.9718C209.857 57.5331 209.136 57.8632 209.745 57.4221C203.772 55.1792 196.774 51.5091 190.604 48.8775C183.995 46.059 177.517 43.6463 170.866 40.9692C163.931 38.1783 135.889 28.2016 129.604 26.8115C132.428 37.7513 145.199 54.504 154.527 62.2288C156.733 64.0556 156.74 64.9561 159.567 66.0902V66.0899Z" fill="#F76A10"/>
<path fill-rule="evenodd" clip-rule="evenodd" d="M146.325 196.636C149.491 195.732 154.147 193.254 157.57 191.838C174.802 184.708 197.735 177.11 215.86 173.557C255.306 165.824 287.816 162.57 328.533 167.109L355.603 170.301C341.297 165.411 317.566 160.911 301.509 159.431C253.295 154.987 197.564 165.992 156.012 190.3C154.217 191.35 152.834 192.216 151.112 193.293C149.403 194.363 147.555 195.232 146.325 196.636L146.325 196.636Z" fill="#F76A10"/>
<path fill-rule="evenodd" clip-rule="evenodd" d="M375.567 260.622C380.693 258.871 389.717 248.325 393.436 243.163C396.726 238.597 404.525 226.111 405.158 218.785C399.297 215.193 378.971 214.518 371.137 214.614C373.189 222.456 375.645 223.485 377.014 235.938C378.124 246.035 376.426 251.399 375.567 260.622Z" fill="#F76A10"/>
<path fill-rule="evenodd" clip-rule="evenodd" d="M190.02 223.648C191.562 222.018 203.069 215.655 206.347 213.961C251.704 190.529 301.122 179.676 353.078 178.968L351.293 178.243C350.947 178.152 349.911 178.032 349.508 177.99L338.81 177.02C308.911 174.368 270.328 179.546 245.067 190.073C229.86 196.41 214.895 203.395 201.689 213.277L189.595 222.943C189.547 222.85 189.18 223.065 189.28 223.135L190.02 223.648Z" fill="#F76A10"/>
<path fill-rule="evenodd" clip-rule="evenodd" d="M410.886 173.004C416.713 177.932 415.268 182.542 418.405 189.309C421.695 188.229 428.254 182.274 430.403 179.955C433.127 177.013 437.611 172.124 438.759 166.819C425.429 169.463 416.436 160.413 397.811 162.104L410.886 173.004V173.004Z" fill="#F76A10"/>
</svg>
